<svg width="40" height="40" viewBox="0 0 40 40" fill="none" xmlns="http://www.w3.org/2000/svg">
<rect width="40" height="40" fill="#768E4D"/>
<path d="M28.0405 24.1386L25.2126 23.8158C24.88 23.7767 24.543 23.8135 24.2267 23.9234C23.9105 24.0334 23.6233 24.2135 23.3867 24.4504L21.3381 26.499C18.1775 24.8915 15.6085 22.3225 14.001 19.1619L16.0608 17.1022C16.5395 16.6235 16.7733 15.9555 16.6954 15.2763L16.3725 12.4706C16.3094 11.9275 16.0487 11.4266 15.6402 11.0632C15.2316 10.6998 14.7037 10.4994 14.1569 10.5H12.2308C10.9727 10.5 9.92615 11.5466 10.0041 12.8047C10.5942 22.3127 18.1984 29.9058 27.6953 30.4959C28.9534 30.5738 30 29.5273 30 28.2692V26.3431C30.0111 25.2186 29.165 24.2722 28.0405 24.1386Z" fill="white"/>
</svg>
